<svg xmlns="http://www.w3.org/2000/svg" fill-rule="evenodd" stroke-miterlimit="1.414" viewBox="0 0 270 85" clip-rule="evenodd" stroke-linejoin="round">
    <path class="logo_text--yvonne" fill-rule="nonzero" d="M76.654 9.466c-1.408 2.476-2.838 5.206-4.288 8.192 0 .172-.214.598-.64 1.28-1.452 2.732-2.902 5.974-4.352 9.728-1.452 3.756-2.774 7.98-3.968 12.672-1.196 4.522-2.496 8.532-3.904 12.032-1.408 3.498-2.838 6.484-4.288 8.96-4.268 6.996-9.856 12.372-16.768 16.128-6.484 3.498-13.012 5.248-19.584 5.248-8.448 0-13.908-3.03-16.384-9.088-1.45-3.414-1.834-6.614-1.152-9.6.512-2.39 1.664-4.14 3.456-5.248 1.792-1.28 3.84-1.92 6.144-1.92 1.11 0 1.792.256 2.048.768-.34.512-.768 1.023-1.28 1.535-.34-.086-.852-.127-1.536-.127-2.048 0-3.328 1.107-3.84 3.328-.256 1.28-.256 3.027 0 5.248.512 3.924 2.39 6.867 5.632 8.832 2.732 1.875 6.316 2.815 10.752 2.815 4.694 0 9.174-1.16 13.44-3.46 4.266-2.39 7.808-5.68 10.624-9.86 3.84-5.81 6.996-12.38 9.472-19.71.682-2.22 1.578-4.99 2.688-8.32 1.108-3.33 2.432-7.25 3.968-11.78-2.304 2.73-4.14 4.88-5.504 6.46-1.366 1.58-2.348 2.58-2.944 3.01-1.622 1.62-3.414 2.51-5.376 2.69-2.646.17-4.096-2.65-4.352-8.45-.086-1.2-.064-3.18.064-5.95s.32-6.38.576-10.82c.34-6.49.042-10.28-.896-11.39 2.56-.68 4.224-.9 4.992-.64.768 1.11.896 4.35.384 9.73l-1.28 13.05c-.342 3.33-.278 5.8.192 7.42.468 1.62 1.172 2.34 2.112 2.17 3.668-.51 8.404-4.82 14.208-12.93.084-.17.618-1.07 1.6-2.69.98-1.62 2.41-4.01 4.288-7.17 2.132-3.58 3.668-6.7 4.608-9.34 1.28-.34 2.346-.51 3.2-.51 1.194 0 1.92.34 2.176 1.02-1.452 1.96-2.88 4.18-4.288 6.65zm30.144 2.56c-.94 2.048-1.836 4.096-2.688 6.144-.854 2.048-1.75 4.096-2.688 6.144-1.452 3.072-3.008 5.824-4.672 8.256-1.664 2.432-3.436 4.544-5.312 6.336h-2.944c-1.708-1.28-2.604-3.668-2.688-7.168-.172-1.364-.3-3.284-.384-5.76-.086-2.474-.128-5.588-.128-9.344-.256-8.106-.214-12.586.128-13.44.17-.084.468-.192.896-.32.426-.128.896-.32 1.408-.576 1.194-.596 2.09-.896 2.688-.896-.172 3.072-.3 6.144-.384 9.216-.086 3.072-.128 6.188-.128 9.344.17 8.62.852 13.91 2.048 15.872 2.048-2.388 4.224-5.844 6.528-10.368 2.218-4.266 3.796-8.106 4.736-11.52 1.28-4.864 3.54-9.044 6.784-12.544l4.096.384c-1.878.684-4.31 4.096-7.296 10.24zm31.615 18.432c-6.23 6.06-12.332 8.788-18.304 8.192-6.32-.768-8.67-5.162-7.04-13.184.85-4.01 2.73-8.064 5.63-12.16 2.98-4.096 6.4-6.954 10.24-8.576 3.67-1.536 7.85-2.26 12.54-2.176 6.23.086 8.7 3.372 7.42 9.856-1.46 6.486-4.95 12.502-10.5 18.048zm-13.056-20.096c-4.268 3.84-6.912 8.32-7.936 13.44-.68 2.988-.55 5.548.39 7.68 1.03 2.476 2.95 3.712 5.76 3.712 5.29 0 10.5-3.412 15.62-10.24 1.45-1.962 2.67-3.904 3.65-5.824s1.69-3.776 2.11-5.568c1.11-5.46-1.06-8.148-6.52-8.064-5.46.172-9.81 1.792-13.05 4.864zm53.76 27.904c-1.964-2.89-1.708-9.906.768-21.046 1.194-5.952 1.792-9.182 1.792-9.692-2.22 0-5.462 1.998-9.728 5.994-7.34 6.632-12.38 12.754-15.11 18.366-.51.936-1.28 3.062-2.31 6.378-.43.086-.81.128-1.15.128h-.9c-.94 0-1.54-.17-1.8-.51.43-1.87 1-4.186 1.73-6.95.72-2.764 1.55-5.974 2.49-9.632.94-3.74 1.77-6.992 2.49-9.756.72-2.764 1.3-5.08 1.73-6.952L164 3.446c.17.34.083 1.19-.257 2.55-.174.852-.514 2.148-1.026 3.892-.51 1.744-1.193 3.976-2.045 6.696-.43.936-.833 2.104-1.217 3.508s-.92 3.082-1.6 5.036c9.216-11.478 16.98-18.79 23.296-21.938 1.54-.68 2.95-1.02 4.23-1.02 1.28 0 1.96.426 2.05 1.276-.68 2.722-1.47 5.74-2.36 9.056-.9 3.316-1.73 7.016-2.5 11.096-.6 2.892-.81 5.188-.64 6.888.17 1.7.6 2.806 1.28 3.316.51 0 .98-.17 1.41-.51.43-.34.81-.51 1.15-.51v.638c0 .256-.04.596-.12 1.02-.09.34-.17.702-.26 1.084-.08.384-.21.788-.38 1.212-1.71 1.02-3.67 1.53-5.89 1.53zm41.983 0c-1.965-2.89-1.71-9.906.767-21.046 1.194-5.952 1.792-9.182 1.792-9.692-2.22 0-5.47 1.998-9.73 5.994-7.34 6.632-12.38 12.754-15.11 18.366-.51.936-1.28 3.062-2.31 6.378-.43.086-.81.128-1.15.128h-.9c-.94 0-1.54-.17-1.79-.51.42-1.87 1-4.186 1.73-6.95.72-2.764 1.55-5.974 2.49-9.632.94-3.74 1.77-6.992 2.49-9.756.72-2.764 1.3-5.08 1.73-6.952l4.86-1.148c.17.34.08 1.19-.26 2.55-.17.852-.51 2.148-1.02 3.892-.51 1.744-1.2 3.976-2.05 6.696-.43.936-.84 2.104-1.22 3.508s-.92 3.082-1.6 5.036c9.21-11.478 16.98-18.79 23.29-21.938 1.53-.68 2.94-1.02 4.22-1.02 1.28 0 1.96.426 2.05 1.276-.69 2.722-1.48 5.74-2.37 9.056-.9 3.316-1.73 7.016-2.5 11.096-.6 2.892-.82 5.188-.64 6.888.17 1.7.59 2.806 1.28 3.316.51 0 .98-.17 1.4-.51.42-.34.81-.51 1.15-.51v.638c0 .256-.05.596-.13 1.02-.09.34-.17.702-.26 1.084-.085.384-.21.788-.38 1.212-1.7 1.02-3.67 1.53-5.88 1.53zm45.246-8.704c-.727.684-1.687 1.452-2.88 2.304-5.72 4.438-10.797 6.826-15.232 7.168-4.95.512-8.448-.512-10.496-3.072-2.22-2.73-2.815-6.484-1.792-11.264 1.28-6.144 4.308-11.604 9.088-16.384 5.204-5.204 10.752-7.68 16.64-7.424 5.204.256 7.425 1.92 6.656 4.992-.512 2.39-4.012 6.144-10.496 11.264-2.9 2.304-8.62 5.036-17.15 8.192 0 .94.104 2.048.318 3.328.213 1.28.49 2.732.832 4.352 1.364 2.22 3.626 3.286 6.784 3.2 2.986-.17 6.826-1.62 11.52-4.352 4.864-2.816 7.51-4.224 7.937-4.224-.43.598-1.006 1.238-1.73 1.92zM247.978 9.978c-3.584 3.756-5.888 7.852-6.912 12.288 2.816-.938 5.46-1.984 7.936-3.136 2.475-1.152 4.778-2.452 6.912-3.904.853-.512 1.664-1.108 2.433-1.792.768-.682 1.578-1.45 2.432-2.304 2.04-2.048 3.2-3.712 3.45-4.992.34-1.536-.98-2.304-3.97-2.304-4.27 0-8.37 2.048-12.29 6.144z"/>
    <g class="logo_text--tagline" fill-rule="nonzero">
        <path d="M92.718 48.85c-.56-.69-1.587-1.036-3.08-1.036-.896 0-1.83.15-2.8.448-1.307.392-2.044.934-2.212 1.624-.112.485.41 1.194 1.568 2.128.522.43 1.064.868 1.624 1.315.56.44 1.11.92 1.652 1.42.634.58 1.078 1.13 1.33 1.65s.33 1 .238 1.43l-.084.39c-.28 1.21-1.008 2.23-2.184 3.05-1.14.76-2.333 1.15-3.584 1.15-1.288 0-2.576-.47-3.864-1.4-1.475-1.03-2.082-2.14-1.82-3.34.15-.71.588-1.07 1.316-1.07.298 0 .625.1.98.31-.056.03-.126.08-.21.12-.084.04-.182.1-.294.18-.168-.08-.345-.12-.532-.12-.318 0-.504.15-.56.45-.15.65.065 1.3.644 1.96.43.5.98.91 1.652 1.23.952.45 1.94.67 2.968.67 2.277 0 3.696-1.01 4.256-3.03.112-.41.084-.83-.084-1.25-.168-.42-.495-.84-.98-1.25-.262-.21-.583-.45-.966-.74s-.817-.66-1.302-1.11L85.298 53c-.728-.69-1.158-1.15-1.288-1.37-.374-.58-.486-1.23-.336-1.94.186-.93.99-1.64 2.408-2.125.504-.17 1.026-.3 1.568-.39.54-.09 1.1-.14 1.68-.14 2.184 0 3.528.476 4.032 1.43l-.644.333zm8.848 6.58c-.28 1.27-1.288 2.613-3.024 4.032-1.83 1.53-3.575 2.25-5.236 2.155-.952 4.145-1.372 6.6-1.26 7.364l.084.62c-.187.15-.41.23-.672.23-.28 0-.476-.07-.588-.22.02-.43.094-1.06.224-1.89.13-.83.317-1.86.56-3.09.15-.67.396-1.72.742-3.16l1.33-5.51c.056-.2.135-.5.238-.89.102-.39.228-.87.378-1.43l.784-.08c0 .02.093.06.28.11-.038.15-.094.33-.168.55-.075.22-.16.48-.252.77-.224.58-.364 1.04-.42 1.38 1.605-1.47 3.37-2.28 5.292-2.41 1.362-.07 1.932.43 1.708 1.51zm-4.704.112c-1.27.597-2.11 1.186-2.52 1.764-.094.41-.215.92-.364 1.525-.15.61-.327 1.33-.532 2.18l.784-.14c1.232-.22 2.52-.83 3.864-1.82 1.474-1.08 2.324-2.17 2.548-3.27.168-.74-.103-1.12-.812-1.12-.672 0-1.662.3-2.968.9zm11.606 4.088c-.16.15-.37.317-.63.504-1.25.97-2.362 1.493-3.332 1.567-1.083.12-1.848-.11-2.296-.67-.486-.59-.616-1.42-.392-2.46.28-1.34.942-2.54 1.988-3.58 1.14-1.14 2.352-1.68 3.64-1.62 1.138.06 1.624.42 1.456 1.09-.112.53-.878 1.35-2.296 2.47-.635.51-1.886 1.11-3.752 1.79 0 .21.023.45.07.73.046.28.107.6.182.95.298.49.793.72 1.484.7.653-.03 1.493-.35 2.52-.95 1.064-.61 1.642-.92 1.736-.92-.094.13-.22.27-.378.42zm-4.018-4.284c-.784.82-1.288 1.718-1.512 2.688.616-.205 1.194-.434 1.736-.686.54-.252 1.045-.536 1.512-.854.187-.11.364-.242.532-.392.168-.15.345-.317.532-.504.448-.448.7-.812.756-1.092.074-.336-.215-.504-.868-.504-.934 0-1.83.447-2.688 1.344zm12.11 4.242c-.252.252-.583.556-.994.91-.43.375-.915.66-1.456.854-.54.195-1.14.293-1.792.293-2.26 0-3.146-1.092-2.66-3.276.317-1.46 1.045-2.64 2.184-3.53 1.138-.95 2.426-1.43 3.864-1.43 1.1 0 1.586.31 1.456.92-.038.22-.15.47-.336.75-.224.28-.43.43-.616.45-.093 0-.21 0-.35.01-.14.01-.312.02-.518.04.43-.32.672-.61.728-.87.074-.34-.206-.54-.84-.59-.653-.06-1.334.15-2.044.61-.654.43-1.195.94-1.624 1.53-.43.59-.72 1.26-.868 2.01-.112.56-.122 1.1-.028 1.62.13.72.756 1.09 1.876 1.09.858 0 1.614-.22 2.268-.65.074-.04.2-.13.378-.27.177-.14.424-.33.742-.58.354-.28.765-.46 1.232-.53l-.602.6zm2.393 2.17c-.672 0-1.092-.14-1.26-.42.02-.354.07-.845.154-1.47.084-.626.23-1.396.434-2.31.4-1.83.73-3.043 1.01-3.64.23-.095.41-.142.56-.142.15 0 .27.057.37.168-.15.355-.28.803-.4 1.344-.12.542-.25 1.177-.4 1.904l-.39 1.792c-.22 1.008-.29 1.587-.19 1.736.13.037.27.12.42.252-.04.375-.13.635-.28.786zm2.646-12.362c-.05.178-.12.396-.21.658l-.27.756c-.07.187-.11.3-.13.336-.13.13-.28.196-.45.196-.15 0-.3-.065-.45-.196.26-1.27.47-2.007.64-2.212.15-.02.27-.032.36-.042.09-.01.18-.014.28-.014.18 0 .29.027.33.084-.04.11-.08.257-.13.434zm7.01 12.026l-.03.084c-.19.037-.35.056-.48.056-.34 0-.62-.12-.84-.364-.06-.354-.07-.877-.03-1.567.03-.69.1-1.55.19-2.6-.64.84-1.29 1.57-1.95 2.19-.66.62-1.35 1.13-2.06 1.54-.84.49-1.51.76-2.02.81-.84.08-1.15-.44-.93-1.56.3-1.47 1.22-2.96 2.77-4.46 1.75-1.73 3.59-2.55 5.51-2.45.09 0 .13.07.11.2-.06.3-.11.69-.17 1.17-.06.49-.12 1.08-.2 1.79-.1.88-.15 1.69-.17 2.44-.02.76-.01 1.46.03 2.11l.42.14-.2.5zm-5.27-5.097c-1.11 1.177-1.79 2.362-2.05 3.557-.11.615-.02.952.28 1.008.41-.02 1.14-.373 2.18-1.064.95-.615 1.61-1.138 1.98-1.567 1.08-1.31 1.78-2.77 2.1-4.37-1.66.16-3.17.98-4.51 2.43zm9.07 5.475c-.1.01-.19.014-.28.014-1.03 0-1.47-.644-1.32-1.932.2-1.94.68-4.704 1.43-8.288.2-.97.38-1.787.54-2.45.16-.662.29-1.17.4-1.526l.17-.056c.05-.02.13-.046.22-.084.45 0 .7.028.76.084-.04.187-.1.438-.19.756l-.3 1.12-.53 1.876c-.13.485-.27 1.115-.42 1.89-.15.775-.33 1.713-.53 2.814-.11.598-.21 1.223-.3 1.876l-.27 2.044c0 .672.27 1.036.81 1.092.17.038.25.075.25.112l-.14.616c-.13.018-.25.032-.34.042zm2.83-.042c-.67 0-1.09-.14-1.26-.42.02-.354.07-.845.15-1.47.08-.626.23-1.396.43-2.31.39-1.83.73-3.043 1.01-3.64.22-.095.41-.142.56-.142.15 0 .27.057.36.168-.15.355-.29.803-.41 1.344-.13.542-.26 1.177-.41 1.904l-.39 1.792c-.23 1.008-.29 1.587-.2 1.736.13.037.27.12.42.252-.04.375-.13.635-.28.786zm2.64-12.362c-.05.178-.12.396-.21.658l-.27.756c-.07.187-.11.3-.13.336-.13.13-.28.196-.45.196-.15 0-.3-.065-.45-.196.26-1.27.47-2.007.64-2.212.15-.02.27-.032.36-.042.09-.01.19-.014.28-.014.19 0 .3.027.33.084-.04.11-.08.257-.13.434zm5.42 10.318c0 .094-.02.187-.06.28-.15.71-.55 1.26-1.21 1.65-.6.337-1.26.505-1.99.505-1.57 0-2.69-.55-3.36-1.63l-.28-.48c.07.02.14-.04.19-.17.02-.04.03-.09.03-.14 0-.06.01-.11.02-.17.02-.04.05-.09.11-.14.07.16.18.38.33.64.74.95 1.84 1.43 3.27 1.43 1.06 0 1.68-.42 1.85-1.24.15-.68-.24-1.26-1.18-1.75l-.97-.48c-.39-.19-.84-.41-1.36-.68-.86-.47-1.29-1.04-1.29-1.69 0-.74.56-1.32 1.68-1.75.84-.34 1.67-.51 2.49-.51.89 0 1.51.18 1.84.56-.17.2-.358.34-.56.42-.28-.23-.74-.34-1.375-.34-.54 0-1.16.11-1.85.34-.895.28-1.36.63-1.4 1.06-.055.31.477.75 1.597 1.31.336.18.68.35 1.036.5.357.15.71.31 1.067.5.897.46 1.345 1.01 1.345 1.62-.02.09-.03.2-.03.31zm7.98-5.77c-.1.076-.25.18-.45.31-.92 0-1.94.15-3.08.447-.15.47-.29.93-.41 1.39-.12.46-.26.93-.41 1.42-.45 1.78-.63 2.84-.54 3.19.67 2.73 2.43 4.08 5.26 4.06.91 0 1.85-.16 2.8-.47.02.04.04.08.05.13.02.05.03.09.05.13-1.23.41-2.38.62-3.45.62-2.67 0-4.49-1.31-5.46-3.95-.23-.69-.15-1.76.22-3.22l.33-1.29c.13-.5.3-1.1.5-1.79l.06-.03c-.25.1-.63.22-1.15.37-.13 0-.26-.03-.39-.11 0-.03 0-.07.01-.11.01-.03.03-.09.07-.17.28-.13.78-.3 1.51-.5.15-.48.31-1.09.49-1.82.174-.73.393-1.56.655-2.52.26-.26.643-.4 1.15-.42.02.04.03.09.03.14 0 .04.01.11.03.2-.21.56-.41 1.19-.6 1.89-.2.7-.43 1.47-.69 2.31 1.4-.28 2.415-.42 3.05-.42.242 0 .41.03.504.09-.04.04-.1.09-.195.17z"/>
        <path d="M156.514 59.63c-.16.15-.37.317-.63.504-1.25.97-2.362 1.493-3.332 1.567-1.083.12-1.848-.11-2.296-.67-.486-.59-.616-1.42-.392-2.46.28-1.34.942-2.54 1.988-3.58 1.14-1.14 2.352-1.68 3.64-1.62 1.138.06 1.624.42 1.456 1.09-.112.53-.878 1.35-2.296 2.47-.635.51-1.886 1.11-3.752 1.79 0 .21.023.45.07.73.046.28.107.6.182.95.298.49.793.72 1.484.7.653-.03 1.493-.35 2.52-.95 1.064-.61 1.642-.92 1.736-.92-.094.13-.22.27-.378.42zm-4.018-4.284c-.784.82-1.288 1.718-1.512 2.688.616-.205 1.194-.434 1.736-.686.54-.252 1.045-.536 1.512-.854.187-.11.364-.242.532-.392.168-.15.345-.317.532-.504.448-.448.7-.812.756-1.092.074-.336-.215-.504-.868-.504-.934 0-1.83.447-2.688 1.344zm11.704 6.412c-.673 0-1.093-.14-1.26-.42.018-.354.07-.845.153-1.47.084-.626.23-1.396.434-2.31.392-1.83.728-3.043 1.008-3.64.224-.095.41-.142.56-.142.15 0 .27.057.364.168-.15.355-.29.803-.41 1.344-.12.542-.26 1.177-.41 1.904l-.39 1.792c-.23 1.008-.29 1.587-.2 1.736.13.037.27.12.42.252-.04.375-.13.635-.28.786zm2.645-12.362c-.047.178-.117.396-.21.658l-.266.756c-.07.187-.11.3-.13.336-.13.13-.28.196-.45.196-.15 0-.3-.065-.45-.196.26-1.27.47-2.007.64-2.212.15-.02.27-.032.36-.042.09-.01.18-.014.28-.014.18 0 .3.027.33.084-.04.11-.08.257-.13.434zm5.895 12.137c-.43-.632-.375-2.167.167-4.604.26-1.31.392-2.01.392-2.12-.49 0-1.2.43-2.13 1.31-1.61 1.45-2.71 2.79-3.31 4.02-.11.2-.28.67-.51 1.39-.1.02-.18.03-.25.03h-.2c-.21 0-.34-.04-.39-.11.09-.41.22-.92.38-1.52.16-.61.34-1.31.54-2.11.2-.82.38-1.53.54-2.14.16-.61.28-1.11.38-1.52l1.06-.25c.04.07.02.26-.06.55-.04.18-.11.47-.22.85s-.26.87-.45 1.46c-.1.2-.19.46-.27.76-.09.31-.2.67-.35 1.1 2.01-2.51 3.71-4.11 5.09-4.8.33-.15.64-.23.92-.23s.43.09.45.28c-.15.59-.33 1.25-.52 1.98-.2.72-.38 1.53-.55 2.43-.13.63-.18 1.13-.14 1.5.03.37.13.61.28.72.11 0 .21-.04.3-.11.09-.08.17-.11.25-.11v.14c0 .05-.01.13-.03.22-.02.07-.04.15-.06.23-.018.08-.046.17-.08.26-.37.22-.8.33-1.28.33zm13.887-1.82c0 .095-.02.188-.056.28-.14.71-.55 1.26-1.2 1.65-.6.338-1.26.506-1.99.506-1.57 0-2.69-.55-3.36-1.63l-.28-.48c.08.02.14-.04.2-.17.02-.04.03-.09.03-.14 0-.06.01-.11.03-.17.02-.04.06-.09.12-.14.08.16.19.38.34.64.75.95 1.84 1.43 3.28 1.43 1.07 0 1.68-.42 1.85-1.24.15-.68-.24-1.26-1.17-1.75l-.96-.48c-.38-.19-.83-.41-1.35-.68-.86-.47-1.29-1.04-1.29-1.69 0-.74.56-1.32 1.68-1.75.84-.34 1.67-.51 2.49-.51.9 0 1.51.18 1.85.56-.17.2-.36.34-.56.42-.28-.23-.74-.34-1.37-.34-.54 0-1.16.11-1.85.34-.9.28-1.36.63-1.4 1.06-.06.31.48.75 1.6 1.31.34.18.68.35 1.04.5.355.15.71.31 1.065.5.9.46 1.345 1.01 1.345 1.62-.02.09-.03.2-.03.31zm8.245-.125c-.252.252-.583.556-.994.91-.43.375-.915.66-1.456.854-.54.195-1.14.293-1.792.293-2.26 0-3.146-1.092-2.66-3.276.317-1.46 1.045-2.64 2.184-3.53 1.138-.95 2.426-1.43 3.864-1.43 1.1 0 1.586.31 1.456.92-.038.22-.15.47-.336.75-.224.28-.43.43-.616.45-.093 0-.21 0-.35.01-.14.01-.312.02-.518.04.43-.32.672-.61.728-.87.074-.34-.206-.54-.84-.59-.653-.06-1.334.15-2.044.61-.654.43-1.195.94-1.624 1.53-.43.59-.72 1.26-.868 2.01-.112.56-.122 1.1-.028 1.62.13.72.756 1.09 1.876 1.09.858 0 1.614-.22 2.268-.65.074-.04.2-.13.378-.27.177-.14.424-.33.742-.58.354-.28.765-.46 1.232-.53l-.602.6zm10.206 5.082h-.28c-.075 0-.16-.01-.252-.028-1.512-.522-2.445-1.802-2.8-3.836-.243-1.325-.224-2.613.056-3.864-.02.075-.005.023.042-.154l.238-.91c.112-.447.158-.802.14-1.063-.504 0-1.223.438-2.156 1.316-1.53 1.42-2.632 2.77-3.304 4.04l-.196.49c-.093.24-.196.54-.308.91-.094.02-.178.03-.252.03h-.196c-.187 0-.308-.03-.364-.11.242-1.21.83-3.18 1.764-5.91.466-1.36.85-2.55 1.148-3.57.298-1.01.522-1.87.672-2.56.26-1.3.326-2.17.196-2.6.298-.05.653-.14 1.064-.25-.02.38-.056.8-.112 1.28s-.14 1-.252 1.56c-.187.86-.42 1.78-.7 2.75-.28.97-.616 2.02-1.008 3.14-.15.38-.322.84-.518 1.4-.196.56-.425 1.23-.686 1.99h-.028c1.027-1.23 1.81-2.13 2.352-2.69.934-.99 1.848-1.69 2.744-2.12.336-.15.644-.22.924-.22.41 0 .495.42.252 1.26-.094.24-.16.44-.196.6l-.084.35c-.224 1.06-.378 2-.462 2.81-.084.81-.08 1.52.014 2.11.242 1.7 1.12 2.83 2.632 3.39.093.02.177.04.252.05.074.01.158.02.252.02.243 0 .532-.08.868-.23.298-.13.522-.213.672-.25 0 .056.056.064.168.027.187-.04.242-.053.168-.053.02 0 .02.03 0 .09-.635.58-1.456.87-2.464.87z"/>
        <path d="M210.034 59.825c-1.363 1.326-2.697 1.923-4.004 1.792-1.38-.168-1.895-1.13-1.54-2.884.187-.877.597-1.764 1.232-2.66.653-.896 1.4-1.52 2.24-1.876.802-.336 1.717-.494 2.744-.476 1.362.02 1.904.74 1.624 2.16-.318 1.42-1.083 2.74-2.296 3.95zm-2.856-4.395c-.934.84-1.512 1.82-1.736 2.94-.15.653-.122 1.213.084 1.68.224.54.644.812 1.26.812 1.157 0 2.296-.746 3.416-2.24.317-.43.583-.854.798-1.273.214-.42.368-.83.462-1.22.242-1.2-.233-1.79-1.428-1.77-1.195.03-2.147.39-2.856 1.06zm11.172 4.395c-1.363 1.326-2.697 1.923-4.004 1.792-1.38-.168-1.895-1.13-1.54-2.884.187-.877.597-1.764 1.232-2.66.653-.896 1.4-1.52 2.24-1.876.802-.336 1.717-.494 2.744-.476 1.362.02 1.904.74 1.624 2.16-.318 1.42-1.083 2.74-2.296 3.95zm-2.856-4.395c-.934.84-1.512 1.82-1.736 2.94-.15.653-.122 1.213.084 1.68.224.54.644.812 1.26.812 1.157 0 2.296-.746 3.416-2.24.317-.43.583-.854.798-1.273.214-.42.368-.83.462-1.22.242-1.2-.233-1.79-1.428-1.77-1.195.03-2.147.39-2.856 1.06zm11.76 6.103c-.43-.632-.374-2.167.168-4.604.26-1.31.392-2.01.392-2.12-.486 0-1.195.43-2.128 1.31-1.605 1.45-2.707 2.79-3.304 4.02-.112.2-.28.67-.504 1.39-.094.02-.178.03-.252.03h-.196c-.206 0-.336-.04-.392-.11.093-.41.22-.92.378-1.52.16-.61.34-1.31.546-2.11.205-.82.387-1.53.546-2.14.158-.61.284-1.11.378-1.52l1.064-.25c.037.07.02.26-.056.55-.038.18-.112.47-.224.85s-.262.87-.448 1.46c-.094.2-.182.46-.266.76-.084.31-.2.67-.35 1.1 2.016-2.51 3.714-4.11 5.096-4.8.336-.15.644-.23.924-.23s.43.09.448.28c-.15.59-.322 1.25-.518 1.98-.196.72-.378 1.53-.546 2.43-.13.63-.178 1.13-.14 1.5.037.37.13.61.28.72.112 0 .214-.04.308-.11.093-.08.177-.11.252-.11v.14c0 .05-.01.13-.028.22-.02.07-.038.15-.056.23-.02.08-.047.17-.084.26-.374.22-.803.33-1.288.33zm12.292 3.137h-.28c-.075 0-.16-.01-.253-.028-1.51-.522-2.445-1.802-2.8-3.836-.242-1.325-.223-2.613.057-3.864-.02.075-.005.023.042-.154l.238-.91c.112-.447.158-.802.14-1.063-.504 0-1.223.438-2.156 1.316-1.53 1.42-2.632 2.77-3.304 4.04l-.196.49c-.093.24-.196.54-.308.91-.094.02-.178.03-.252.03h-.196c-.187 0-.308-.03-.364-.11.242-1.21.83-3.18 1.764-5.91.466-1.36.85-2.55 1.148-3.57.298-1.01.522-1.87.672-2.56.26-1.3.326-2.17.196-2.6.298-.05.653-.14 1.064-.25-.02.38-.056.8-.112 1.28s-.14 1-.252 1.56c-.187.86-.42 1.78-.7 2.75-.28.97-.616 2.02-1.008 3.14-.15.38-.322.84-.518 1.4-.196.56-.425 1.23-.686 1.99h-.028c1.027-1.23 1.81-2.13 2.352-2.69.934-.99 1.848-1.69 2.744-2.12.336-.15.644-.22.924-.22.41 0 .495.42.252 1.26-.094.24-.16.44-.196.6l-.084.35c-.224 1.06-.378 2-.462 2.81-.084.81-.08 1.52.014 2.11.242 1.7 1.12 2.83 2.632 3.39.093.02.177.04.252.05.074.01.158.02.252.02.242 0 .53-.08.867-.23.3-.13.53-.213.68-.25 0 .056.06.064.17.027.19-.04.25-.053.17-.053.02 0 .02.03 0 .09-.63.58-1.45.87-2.46.87z"/>
        <path d="M245.803 59.63c-.16.15-.368.317-.63.504-1.25.97-2.36 1.493-3.332 1.567-1.08.12-1.84-.11-2.29-.67-.48-.59-.61-1.42-.39-2.46.28-1.34.94-2.54 1.99-3.58 1.14-1.14 2.36-1.68 3.64-1.62 1.14.06 1.63.42 1.46 1.09-.11.53-.88 1.35-2.29 2.47-.63.51-1.88 1.11-3.75 1.79 0 .21.02.45.07.73.05.28.11.6.18.95.3.49.8.72 1.49.7.66-.03 1.5-.35 2.52-.95 1.07-.61 1.65-.92 1.74-.92-.09.13-.22.27-.37.42zm-4.02-4.284c-.782.82-1.286 1.718-1.51 2.688.615-.205 1.194-.434 1.735-.686.54-.252 1.045-.536 1.512-.854.187-.11.364-.242.532-.392.168-.15.345-.317.532-.504.447-.448.7-.812.756-1.092.074-.336-.215-.504-.868-.504-.933 0-1.828.447-2.688 1.344zm6.527 6.412c-.673 0-1.093-.14-1.262-.42.02-.354.07-.845.154-1.47.084-.626.23-1.396.435-2.31.392-1.83.728-3.043 1.008-3.64.224-.095.41-.142.56-.142.15 0 .27.057.364.168-.15.355-.29.803-.41 1.344-.12.542-.26 1.177-.41 1.904-.13.598-.26 1.195-.4 1.792-.23 1.008-.29 1.587-.2 1.736.13.037.27.12.42.252-.04.375-.14.635-.28.786zm2.644-12.362c-.047.178-.116.396-.21.658l-.266.756c-.066.187-.107.3-.126.336-.13.13-.28.196-.447.196-.15 0-.3-.065-.45-.196.263-1.27.478-2.007.646-2.212.15-.02.28-.032.37-.042.1-.01.19-.014.28-.014.19 0 .3.027.34.084-.03.11-.08.257-.12.434zm8.136 12.026l-.03.084c-.186.037-.326.056-.42.056-.3 0-.54-.112-.727-.336-.244-.43-.244-1.83 0-4.2-1.252 1.68-2.586 2.922-4.004 3.725-.86.49-1.54.76-2.02.82-.86.1-1.17-.43-.93-1.57.15-.69.43-1.39.84-2.1.41-.71.97-1.42 1.68-2.13 1.58-1.64 3.26-2.54 5.04-2.69.65-3.36 1.23-5.37 1.73-6.05l1.09-.02c-.68 1.22-1.26 2.94-1.77 5.18-.06.26-.11.54-.17.83-.06.29-.11.59-.14.89l-.14.59c-.28 1.29-.45 3.38-.51 6.28l.64.17-.2.51zm-5.265-5.097c-1.102 1.177-1.783 2.362-2.045 3.557-.11.615-.02.952.28 1.008.41-.02 1.138-.373 2.185-1.064.95-.615 1.613-1.138 1.988-1.567 1.082-1.31 1.78-2.77 2.1-4.37-1.662.16-3.164.98-4.508 2.43z"/>
    </g>
</svg>
